<?xml version="1.0" standalone="no"?>
<!DOCTYPE svg PUBLIC "-//W3C//DTD SVG 20010904//EN"
 "http://www.w3.org/TR/2001/REC-SVG-20010904/DTD/svg10.dtd">
<svg version="1.0" xmlns="http://www.w3.org/2000/svg"
 width="260.000000pt" height="260.000000pt" viewBox="0 0 260.000000 260.000000"
 preserveAspectRatio="xMidYMid meet">
<metadata>
Created by potrace 1.11, written by Peter Selinger 2001-2013
</metadata>
<g transform="translate(0.000000,260.000000) scale(0.100000,-0.100000)"
fill="#000000" stroke="none">
<path d="M0 1300 l0 -1300 1300 0 1300 0 0 1300 0 1300 -1300 0 -1300 0 0
-1300z m2450 0 l0 -1150 -1150 0 -1150 0 0 1150 0 1150 1150 0 1150 0 0 -1150z"/>
<path d="M1147 2156 c-110 -48 -168 -89 -240 -166 -75 -81 -131 -179 -160
-280 -28 -98 -30 -276 -3 -365 28 -95 92 -208 158 -280 208 -227 522 -287 792
-151 95 47 205 133 156 121 -14 -3 -63 -11 -110 -17 -196 -26 -412 56 -551
211 -229 253 -225 645 10 893 74 80 66 85 -52 34z"/>
<path d="M1513 1737 l-31 -64 -61 -7 c-34 -4 -61 -10 -61 -14 0 -4 20 -27 44
-51 42 -41 43 -44 35 -84 -4 -23 -8 -52 -9 -65 l0 -22 50 25 c27 14 56 25 65
25 9 0 38 -11 65 -25 l50 -25 0 22 c0 13 -5 41 -10 63 -9 39 -8 41 35 85 25
25 45 48 45 52 0 3 -27 9 -60 13 l-61 7 -32 64 -32 64 -32 -63z"/>
<path d="M2033 500 c-17 -7 -23 -18 -23 -39 0 -25 6 -31 35 -41 48 -16 48 -45
0 -37 -40 6 -55 -7 -26 -22 45 -25 101 -3 101 39 0 12 -14 25 -40 36 -52 23
-55 49 -5 40 42 -8 48 9 9 24 -14 6 -26 10 -27 9 -1 0 -12 -4 -24 -9z"/>
<path d="M490 425 c0 -60 3 -75 15 -75 8 0 15 8 15 19 0 13 10 20 32 25 41 8
58 23 58 52 0 35 -26 54 -76 54 l-44 0 0 -75z m79 41 c17 -20 3 -46 -25 -46
-20 0 -24 5 -24 30 0 23 5 30 19 30 10 0 24 -6 30 -14z"/>
<path d="M640 425 c0 -60 3 -75 15 -75 9 0 15 9 15 25 0 15 6 25 15 25 8 0 22
-11 31 -25 9 -14 25 -25 35 -25 19 0 19 1 3 26 -13 19 -14 28 -5 37 15 15 14
60 -1 75 -7 7 -34 12 -60 12 l-48 0 0 -75z m85 30 c0 -14 -8 -21 -27 -23 -22
-3 -28 1 -28 16 0 25 10 33 35 30 12 -2 20 -10 20 -23z"/>
<path d="M814 427 c-18 -42 -27 -74 -21 -76 6 -2 16 4 23 14 18 24 73 26 85 3
11 -20 44 -25 36 -5 -37 93 -62 137 -76 137 -10 0 -27 -26 -47 -73z m60 7 c9
-22 8 -24 -9 -24 -8 0 -15 9 -15 20 0 24 15 27 24 4z"/>
<path d="M940 493 c0 -5 9 -22 19 -40 11 -17 21 -46 23 -65 4 -45 32 -45 36 0
2 19 12 48 23 65 23 39 24 47 4 47 -9 0 -21 -11 -27 -25 -6 -14 -14 -25 -18
-25 -4 0 -12 11 -18 25 -10 23 -42 36 -42 18z"/>
<path d="M1090 425 l0 -75 55 0 c42 0 55 3 55 15 0 11 -11 15 -40 15 -50 0
-57 27 -8 32 46 4 49 28 3 28 -29 0 -36 3 -33 17 2 10 10 18 18 19 8 1 25 2
38 2 47 4 19 22 -33 22 l-55 0 0 -75z"/>
<path d="M1232 428 c2 -46 7 -73 16 -76 7 -2 12 6 12 22 0 33 22 34 48 1 11
-14 28 -25 37 -25 16 0 16 1 0 26 -12 19 -14 29 -6 37 15 15 14 60 -1 75 -7 7
-34 12 -60 12 l-49 0 3 -72z m86 25 c3 -20 -1 -23 -27 -23 -23 0 -31 5 -31 18
0 25 10 33 35 30 12 -2 21 -12 23 -25z"/>
<path d="M1440 490 c0 -5 9 -10 20 -10 18 0 20 -7 20 -65 0 -50 3 -65 15 -65
10 0 15 16 17 63 3 56 5 62 26 65 12 2 20 8 17 13 -8 12 -115 12 -115 -1z"/>
<path d="M1590 425 c0 -60 3 -75 15 -75 12 0 15 15 15 75 0 60 -3 75 -15 75
-12 0 -15 -15 -15 -75z"/>
<path d="M1660 424 c0 -56 3 -75 13 -72 6 3 14 24 17 49 l5 44 19 -43 c10 -23
22 -42 26 -42 4 0 16 19 26 42 l19 43 5 -44 c3 -25 11 -46 18 -49 9 -3 12 16
12 72 0 70 -2 76 -20 76 -13 0 -26 -12 -37 -35 -9 -19 -20 -35 -23 -35 -3 0
-14 16 -23 35 -11 23 -24 35 -37 35 -18 0 -20 -6 -20 -76z"/>
<path d="M1870 424 l0 -75 52 3 c67 4 79 28 14 28 -35 0 -44 3 -40 14 3 8 20
16 37 18 44 4 48 28 4 28 -22 0 -37 6 -41 15 -4 12 3 15 34 15 29 0 40 4 40
15 0 11 -12 15 -50 15 l-50 0 0 -76z"/>
</g>
</svg>
